<svg class="svg-icon" style="width: 1em; height: 1em;vertical-align: middle;fill: currentColor;overflow: hidden;" viewBox="0 0 1024 1024" version="1.1" xmlns="http://www.w3.org/2000/svg"><path d="M887.445 263.924H709.133v-17.205c0-109.244-88.556-197.795-197.805-197.795-109.248 0-197.803 88.551-197.803 197.795v17.205h-176.97a34.294 34.294 0 0 0-34.4 34.399v576.198a34.295 34.295 0 0 0 34.4 34.4h750.89a34.295 34.295 0 0 0 34.4-34.4v-576.198a34.294 34.294 0 0 0-34.4-34.399z m-255.716 0H390.928v-17.205c0-66.515 53.887-120.396 120.4-120.396 66.516 0 120.401 53.882 120.401 120.396v17.205z"  /></svg>